<?xml version="1.0" encoding="UTF-8" standalone="no"?>
<!-- Created with Inkscape (http://www.inkscape.org/) -->

<svg
   xmlns:ns0="http://www.iki.fi/pav/software/textext/"
   xmlns:dc="http://purl.org/dc/elements/1.1/"
   xmlns:cc="http://creativecommons.org/ns#"
   xmlns:rdf="http://www.w3.org/1999/02/22-rdf-syntax-ns#"
   xmlns:svg="http://www.w3.org/2000/svg"
   xmlns="http://www.w3.org/2000/svg"
   xmlns:sodipodi="http://sodipodi.sourceforge.net/DTD/sodipodi-0.dtd"
   xmlns:inkscape="http://www.inkscape.org/namespaces/inkscape"
   width="160"
   height="80"
   id="svg2"
   sodipodi:version="0.32"
   inkscape:version="0.48.2 r9819"
   sodipodi:docname="logo.svg"
   version="1.0"
   inkscape:output_extension="org.inkscape.output.svg.inkscape"
   inkscape:export-filename="P:\h2g2m\logo\logo.png"
   inkscape:export-xdpi="300.48587"
   inkscape:export-ydpi="300.48587">
  <sodipodi:namedview
     id="base"
     pagecolor="#ffffff"
     bordercolor="#666666"
     borderopacity="1.0"
     inkscape:pageopacity="1"
     inkscape:pageshadow="2"
     inkscape:zoom="0.7"
     inkscape:cx="54.721011"
     inkscape:cy="-300.66908"
     inkscape:document-units="px"
     inkscape:current-layer="layer1"
     showgrid="false"
     inkscape:window-width="1598"
     inkscape:window-height="1024"
     inkscape:window-x="78"
     inkscape:window-y="0"
     fit-margin-top="0"
     fit-margin-left="0"
     fit-margin-right="0"
     fit-margin-bottom="0"
     inkscape:window-maximized="0" />
  <defs
     id="defs4">
    <inkscape:perspective
       id="perspective10"
       inkscape:persp3d-origin="372.04724 : 350.78739 : 1"
       inkscape:vp_z="744.09448 : 526.18109 : 1"
       inkscape:vp_y="0 : 1000 : 0"
       inkscape:vp_x="0 : 526.18109 : 1"
       sodipodi:type="inkscape:persp3d" />
  </defs>
  <metadata
     id="metadata7">
    <rdf:RDF>
      <cc:Work
         rdf:about="">
        <dc:format>image/svg+xml</dc:format>
        <dc:type
           rdf:resource="http://purl.org/dc/dcmitype/StillImage" />
        <dc:title></dc:title>
      </cc:Work>
    </rdf:RDF>
  </metadata>
  <g
     id="layer1"
     inkscape:groupmode="layer"
     inkscape:label="Ebene 1"
     transform="translate(-23.710015,-14.631359)">
    <g
       ns0:preamble="P:\\Shirtnerds\\Motive\\radicalideals\\preamble.tex"
       ns0:text="$h\xc2\xb2g2M$"
       word-spacing="normal"
       letter-spacing="normal"
       font-size-adjust="none"
       font-stretch="normal"
       font-weight="normal"
       font-variant="normal"
       font-style="normal"
       stroke-miterlimit="10.433"
       xml:space="preserve"
       transform="matrix(5.2278969,0,0,-5.2278969,-1143.3264,3767.3008)"
       id="content"
       style="font-style:normal;font-variant:normal;font-weight:normal;font-stretch:normal;letter-spacing:normal;word-spacing:normal;text-anchor:start;fill:none;stroke:#000000;stroke-linecap:butt;stroke-linejoin:miter;stroke-miterlimit:10.43299961;stroke-opacity:1;stroke-dasharray:none;stroke-dashoffset:0">
<path
   id="path2390"
   d="m 225.96,714.32 -0.12,0.1 c -0.52,-0.25 -0.88,-0.34 -1.6,-0.41 l -0.04,-0.21 0.48,0 c 0.24,0 0.34,-0.07 0.34,-0.24 0,-0.08 -0.01,-0.17 -0.02,-0.24 l -0.42,-2.33 c -0.28,-1.51 -0.67,-3.22 -0.87,-3.85 l 0.06,-0.11 0.69,0.16 c 0.16,1.15 0.33,1.76 0.62,2.28 0.44,0.81 1.47,1.78 1.89,1.78 0.13,0 0.22,-0.09 0.22,-0.22 0,-0.18 -0.07,-0.56 -0.15,-0.89 l -0.51,-1.95 c -0.09,-0.36 -0.13,-0.58 -0.13,-0.77 0,-0.24 0.11,-0.39 0.3,-0.39 0.26,0 0.62,0.21 1.6,0.94 l -0.1,0.18 -0.26,-0.17 c -0.29,-0.19 -0.51,-0.3 -0.61,-0.3 -0.07,0 -0.13,0.09 -0.13,0.2 0,0.1 0.01,0.18 0.07,0.4 l 0.64,2.55 c 0.06,0.26 0.11,0.57 0.11,0.74 0,0.21 -0.11,0.35 -0.29,0.35 -0.34,0 -0.95,-0.32 -1.58,-0.85 -0.34,-0.29 -0.51,-0.47 -0.97,-1.06 l -0.2,-0.25 0.98,4.56 z"
   style="fill:#000000;stroke-width:0"
   inkscape:connector-curvature="0" />
<path
   id="path2392"
   d="m 228.83,710.92 0,-0.2 c 1.42,0.02 1.42,0.02 1.69,0.02 0.27,0 0.27,0 1.74,-0.02 -0.02,0.16 -0.02,0.24 -0.02,0.34 0,0.1 0,0.18 0.02,0.34 -0.88,-0.03 -1.22,-0.04 -2.62,-0.07 l 1.37,1.46 c 0.74,0.78 0.97,1.2 0.97,1.76 0,0.87 -0.6,1.41 -1.56,1.41 -0.54,0 -0.91,-0.15 -1.28,-0.53 l -0.13,-1.03 0.22,0 0.1,0.35 c 0.12,0.44 0.39,0.63 0.9,0.63 0.65,0 1.06,-0.41 1.06,-1.05 0,-0.57 -0.31,-1.13 -1.17,-2.04 l -1.29,-1.37 z"
   style="fill:#000000;stroke-width:0"
   inkscape:connector-curvature="0" />
<path
   id="path2394"
   d="m 237.38,710.91 0.01,0 0.02,-0.01 0.01,0 0.01,0 0.02,0 0.01,0 0.01,0 0.02,0 0.01,0 0.01,-0.01 0.01,0 0.01,0 0.01,0 0.01,0 0.01,0 0.01,0 0.02,0 0.02,0 0.02,0 0.02,0 0.01,0 0.02,0 0.03,0 c 0.17,0 0.27,0.01 0.5,0.04 l 0.09,0.45 -0.03,0.06 c -0.28,-0.07 -0.48,-0.09 -1.01,-0.09 -0.16,0.26 -0.26,0.35 -0.51,0.44 -0.21,0.09 -0.46,0.13 -0.67,0.13 -0.41,0 -0.91,-0.19 -1.34,-0.51 -0.56,-0.42 -0.85,-1 -0.85,-1.71 0,-0.76 0.45,-1.22 1.21,-1.22 0.08,0 0.19,0 0.3,0.01 l -0.41,-0.38 c -0.16,-0.15 -0.26,-0.33 -0.26,-0.47 0,-0.1 0.06,-0.21 0.2,-0.33 l 0.16,-0.18 0.77,-0.59 c 0.46,-0.35 0.65,-0.62 0.65,-0.95 0,-0.52 -0.69,-0.94 -1.52,-0.94 -0.81,0 -1.38,0.42 -1.38,1.03 0,0.38 0.18,0.73 0.5,0.99 0.26,0.21 0.48,0.31 0.98,0.46 l -0.16,0.18 c -0.75,-0.25 -1.06,-0.4 -1.43,-0.71 -0.34,-0.27 -0.53,-0.66 -0.53,-1.06 0,-0.71 0.7,-1.17 1.79,-1.17 1.28,0 2.41,0.72 2.41,1.55 0,0.36 -0.21,0.71 -0.64,1.06 l -0.6,0.49 c -0.34,0.27 -0.47,0.46 -0.47,0.65 0,0.09 0.06,0.19 0.21,0.38 0.03,0.04 0.04,0.05 0.06,0.08 l -0.21,0.22 c -0.61,0 -0.92,0.41 -0.92,1.19 0,0.95 0.5,1.6 1.23,1.6 l 0,0 c 0.58,0 0.87,-0.36 0.87,-1.07 0,-1.03 -0.48,-1.72 -1.18,-1.72 l 0.21,-0.22 c 0.98,0.24 1.68,1.06 1.68,1.95 0,0.09 -0.01,0.18 -0.03,0.33 l 0,0.05 z"
   style="fill:#000000;stroke-width:0"
   inkscape:connector-curvature="0" />
<path
   id="path2396"
   d="m 238.61,707.35 0,-0.26 c 1.86,0.03 1.86,0.03 2.22,0.03 0.36,0 0.36,0 2.28,-0.03 -0.02,0.21 -0.02,0.31 -0.02,0.45 0,0.13 0,0.23 0.02,0.45 -1.15,-0.05 -1.6,-0.06 -3.45,-0.1 l 1.82,1.92 c 0.96,1.03 1.26,1.58 1.26,2.32 0,1.15 -0.78,1.86 -2.04,1.86 -0.72,0 -1.21,-0.2 -1.69,-0.7 l -0.17,-1.36 0.29,0 0.12,0.46 c 0.16,0.58 0.52,0.83 1.19,0.83 0.86,0 1.41,-0.54 1.41,-1.38 0,-0.75 -0.42,-1.49 -1.55,-2.68 l -1.69,-1.81 z"
   style="fill:#000000;stroke-width:0"
   inkscape:connector-curvature="0" />
<path
   id="path2398"
   d="m 253.33,713.74 0.03,0.28 -0.28,-0.01 c -0.28,-0.02 -0.43,-0.02 -0.56,-0.02 l -0.23,0 -0.59,0.03 -0.16,-0.31 c -0.27,-0.51 -0.46,-0.85 -0.69,-1.25 l -2.45,-4.2 -1.49,5.76 -0.28,-0.01 c -0.28,-0.02 -0.43,-0.02 -0.56,-0.02 l -0.24,0 -0.59,0.03 -0.03,-0.28 0.26,-0.02 c 0.52,-0.04 0.7,-0.14 0.7,-0.4 0,-0.06 -0.01,-0.13 -0.03,-0.2 l -1.44,-5.07 c -0.16,-0.52 -0.31,-0.65 -0.86,-0.7 l -0.03,-0.26 0.39,0.01 c 0.34,0.01 0.59,0.02 0.72,0.02 0.14,0 0.4,-0.01 0.75,-0.02 l 0.35,-0.01 0.03,0.28 -0.38,0.03 c -0.32,0.02 -0.49,0.12 -0.49,0.27 0,0.1 0.02,0.23 0.07,0.41 l 1.24,4.62 1.48,-5.76 0.23,0 0.57,1.04 c 0.78,1.4 1.71,3.02 2.38,4.12 l 0.52,0.87 -0.37,-5.18 c -0.04,-0.28 -0.16,-0.35 -0.67,-0.39 l -0.31,-0.03 -0.03,-0.28 0.47,0.01 c 0.42,0.01 0.72,0.02 0.87,0.02 0.16,0 0.46,-0.01 0.87,-0.02 l 0.45,-0.01 0.03,0.28 -0.36,0.03 c -0.36,0.03 -0.54,0.14 -0.54,0.35 l 0.01,0.37 0.41,5.29 c 0.02,0.19 0.16,0.29 0.45,0.31 l 0.38,0.02 z"
   style="fill:#000000;stroke-width:0"
   inkscape:connector-curvature="0" />
</g>  </g>
</svg>
